<?xml version="1.0" encoding="UTF-8"?>
<svg id="Layer_1" xmlns="http://www.w3.org/2000/svg" version="1.1" viewBox="0 0 100 100">
  <defs>
    <style>
      .st0 {
        fill: #9c27b0;
      }
    </style>
  </defs>
  <path class="st0" d="M80,92H20c-6.62,0-12-5.38-12-12V20c0-6.62,5.38-12,12-12h60c6.62,0,12,5.38,12,12v60c0,6.62-5.38,12-12,12ZM20,16c-2.21,0-4,1.79-4,4v60c0,2.21,1.79,4,4,4h60c2.21,0,4-1.79,4-4V20c0-2.21-1.79-4-4-4H20Z"/>
  <path class="st0" d="M64,68h-28c-2.21,0-4-1.79-4-4v-28c0-2.21,1.79-4,4-4h28c2.21,0,4,1.79,4,4v28c0,2.21-1.79,4-4,4ZM40,60h20v-20h-20v20Z"/>
</svg>

